<?xml version="1.0" standalone="no"?>
<!DOCTYPE svg PUBLIC "-//W3C//DTD SVG 20010904//EN"
 "http://www.w3.org/TR/2001/REC-SVG-20010904/DTD/svg10.dtd">
<svg version="1.0" xmlns="http://www.w3.org/2000/svg"
 width="512.000000pt" height="512.000000pt" viewBox="0 0 512.000000 512.000000"
 preserveAspectRatio="xMidYMid meet">
<metadata>
Created by potrace 1.14, written by Peter Selinger 2001-2017
</metadata>
<g transform="translate(0.000000,512.000000) scale(0.100000,-0.100000)"
fill="#000000" stroke="none">
<path d="M2213 4550 c-2 -3 -28 -6 -56 -6 -29 -1 -53 -3 -54 -4 -2 -1 -12 -4
-23 -5 -11 -1 -21 -3 -22 -4 -2 -2 -14 -4 -28 -6 -27 -5 -62 -12 -70 -15 -3
-1 -9 -3 -15 -4 -5 -1 -17 -5 -25 -8 -50 -20 -150 -30 -150 -15 0 4 -4 5 -10
2 -19 -11 -50 -14 -50 -4 0 6 -6 7 -12 3 -18 -11 -48 -12 -48 -2 0 5 -5 6 -12
2 -17 -11 -68 -12 -74 -2 -3 5 -10 5 -16 2 -6 -4 -32 -9 -57 -10 -25 -2 -80
-6 -121 -9 -41 -3 -96 -7 -122 -8 -27 -1 -48 -5 -48 -8 0 -4 -12 -6 -27 -6
-16 0 -44 -3 -63 -6 -19 -4 -46 -9 -60 -12 -14 -2 -38 -7 -55 -11 -16 -3 -39
-7 -50 -9 -11 -1 -27 -5 -35 -8 -8 -4 -24 -8 -35 -10 -49 -9 -216 -61 -284
-89 -14 -6 -28 -12 -31 -13 -14 -4 -66 -30 -70 -35 -3 -3 -25 -14 -49 -25 -24
-11 -49 -24 -55 -30 -6 -6 -28 -21 -48 -34 -21 -12 -38 -28 -38 -33 0 -6 -3
-9 -6 -5 -8 7 -128 -112 -137 -135 -3 -10 -11 -18 -17 -18 -5 0 -10 -5 -10
-10 0 -6 -8 -22 -17 -37 -10 -14 -18 -31 -20 -37 -1 -6 -9 -31 -18 -55 -33
-92 -36 -210 -8 -326 3 -11 5 -28 5 -37 -1 -10 4 -18 9 -18 6 0 8 -4 5 -9 -3
-5 -1 -33 4 -62 6 -30 13 -70 16 -89 2 -19 10 -64 16 -100 7 -36 11 -68 10
-72 -1 -5 2 -8 8 -8 5 0 10 -8 10 -18 0 -10 3 -22 7 -26 5 -4 8 -11 9 -14 1
-12 34 -75 54 -107 10 -16 31 -55 46 -85 15 -30 40 -74 56 -97 15 -23 28 -46
28 -51 0 -6 7 -13 16 -16 9 -4 14 -9 11 -12 -3 -4 -1 -12 6 -19 7 -6 23 -27
37 -45 91 -122 263 -289 419 -408 l69 -54 -40 -96 c-22 -53 -49 -116 -59 -139
-10 -23 -19 -45 -19 -48 0 -3 -10 -27 -21 -53 -21 -45 -45 -101 -194 -457 -37
-88 -76 -180 -87 -205 -11 -24 -21 -49 -23 -55 -1 -5 -9 -26 -18 -45 -39 -89
-249 -586 -251 -596 -1 -7 -7 -18 -13 -25 -6 -8 -11 -16 -10 -19 1 -4 -66
-168 -110 -270 -9 -19 -22 -51 -30 -70 -8 -19 -18 -43 -23 -52 -6 -10 -10 -20
-10 -23 0 -3 864 -5 1920 -5 l1920 0 -5 35 c-15 105 -21 151 -46 315 -12 80
-23 161 -25 180 -3 19 -7 51 -9 70 -3 19 -7 51 -9 70 -3 19 -8 49 -11 65 -4
17 -6 42 -6 58 1 15 -2 27 -6 27 -5 0 -9 17 -10 38 -1 41 -10 117 -13 117 -1
0 -3 21 -6 47 -2 26 -8 65 -12 85 -5 21 -8 48 -7 60 1 13 -1 23 -4 23 -4 0 -6
18 -6 40 0 22 -2 40 -5 40 -5 0 -10 40 -13 108 0 6 -3 12 -6 12 -3 0 -7 19 -8
43 -3 59 -12 127 -17 136 -6 9 92 33 105 25 5 -3 9 -1 9 4 0 6 16 13 35 16
133 25 474 161 565 226 15 11 33 20 39 20 6 0 11 5 11 10 0 6 5 10 10 10 6 0
16 5 23 10 46 39 61 50 69 50 5 0 6 5 3 10 -3 6 0 10 7 10 8 0 29 14 48 32 19
17 37 30 40 29 3 -2 18 7 34 20 40 34 138 129 131 129 -3 0 3 9 12 19 33 37
43 50 43 61 0 5 5 10 10 10 6 0 10 6 10 13 0 6 11 25 25 41 13 16 22 33 19 37
-3 5 -1 9 3 9 5 0 19 18 33 40 14 22 28 40 32 40 5 0 8 6 8 14 0 7 11 25 24
39 35 38 85 147 100 219 16 75 13 193 -6 216 -10 12 -10 14 0 8 16 -9 15 -3
-3 40 -8 19 -14 35 -14 37 0 2 -19 55 -28 77 -3 8 -5 18 -5 23 1 4 -1 7 -6 7
-4 0 -13 15 -21 33 -8 17 -17 34 -20 37 -3 3 -19 25 -36 50 -16 25 -37 54 -47
65 -10 11 -39 44 -65 74 -27 30 -56 62 -66 70 -20 17 -86 77 -129 116 -15 14
-32 25 -37 25 -6 0 -11 4 -11 8 0 5 -22 24 -50 43 -27 19 -50 38 -50 42 0 5
-4 5 -10 2 -5 -3 -10 -1 -10 5 0 6 -4 8 -10 5 -5 -3 -10 -2 -10 4 0 5 -22 22
-50 38 -27 15 -50 32 -50 36 0 5 -4 5 -10 2 -5 -3 -10 -2 -10 3 0 6 -19 19
-42 31 -24 12 -59 30 -78 42 -60 35 -95 53 -102 54 -4 0 -16 8 -27 17 -11 9
-22 13 -26 10 -3 -4 -9 -2 -13 3 -10 15 -50 35 -67 35 -8 0 -15 5 -15 10 0 6
-8 10 -17 10 -10 0 -27 7 -37 15 -10 8 -23 12 -27 9 -5 -3 -9 0 -9 7 0 7 -3 9
-7 6 -3 -4 -15 1 -26 10 -10 10 -22 17 -26 17 -3 -1 -16 2 -29 7 -13 5 -26 9
-30 9 -4 0 -24 15 -44 33 -62 54 -73 63 -135 105 -97 66 -294 169 -341 178 -8
1 -21 6 -30 10 -9 4 -19 8 -22 8 -3 1 -18 6 -35 13 -58 22 -70 26 -80 28 -5 1
-12 3 -15 4 -7 4 -30 9 -65 16 -16 3 -41 10 -55 15 -34 13 -134 32 -177 33
-13 1 -23 4 -23 7 0 3 -10 6 -22 7 -13 0 -43 3 -68 7 -25 4 -74 9 -110 11 -36
2 -65 4 -65 5 0 4 -227 4 -232 0z"/>
</g>
</svg>
