<svg xmlns="http://www.w3.org/2000/svg" id="Layer_6" data-name="Layer 6" viewBox="0 0 360 360"><defs><style>.cls-1{fill:#3c3aa3}</style></defs><path d="M111.34 101h-11.13V56.47h-9.75V39.15H70.34V21.12H66.7v18.03H46.58v17.32h-7.6v133.59h61.23v-44.53h11.13v44.53h61.23V56.47h-61.23zM55.43 67.77H48.4v-7.03h7.03zm16.6 0H65v-7.03h7.03zm16.02 0h-7.03v-7.03h7.03zm55.17 101.66h5.86v19.29h-5.86zm-7.06 0h5.86v19.29h-5.86zM254.23 56.47l-66.79 133.59h133.59zm4.67 113.2h-9.57v-9.57h9.57zm-9.57-17.01-5.16-44.01h20.12l-5.33 44.01zm-61.9 186.22h133.59l-38.96-66.79 38.96-66.8H206.49l.07 13.96 26.77-.15.02 5.03h-.04l.08 14.62 37.52-.2-.01-3.35 5.02-.03.06 11.72-5.02.03-.02-3.35-37.52.2v.02l-5.02.02-.11-19.66-21.7.12.32 59.38 29.26-.15v.06h.07l.1 19.37h.01v1.22l.02 3.74h-.04v.06l-18.4-.1-.01 3.35-5.03-.03.07-11.72 5.02.03-.02 3.35 13.36.07-.08-14.36-24.3.14-5.02.03-.35-64.41-14.12.07-.02 100.47 69.52-.37.02-3.18 5.02.02-.06 11.73-5.02-.03.02-3.52-69.48.38z" class="cls-1"/><path d="M201.47 205.29h-14.04v14.06l14.11-.08zm-29.94 29.26-31.2-29.26H81.32L39.6 244.42v55.34l41.72 39.12h59.01l32.24-30.23-25.62-37.82z" class="cls-1"/></svg>